<svg width="20" height="18" viewBox="0 0 20 18" fill="none" xmlns="http://www.w3.org/2000/svg">
<path d="M19.707 8.29298L11.707 0.292975C11.5672 0.153122 11.389 0.0578764 11.195 0.019284C11.0011 -0.0193084 10.8 0.000485674 10.6173 0.0761631C10.4346 0.15184 10.2784 0.280002 10.1685 0.44444C10.0586 0.608878 10 0.802206 10 0.999975V4.5449C7.2683 4.79774 4.72926 6.06084 2.87973 8.08701C1.0302 10.1132 0.0033085 12.7566 2.93403e-09 15.5V17C-1.59013e-05 17.2077 0.0646263 17.4102 0.184952 17.5794C0.305279 17.7487 0.475319 17.8763 0.671467 17.9445C0.867616 18.0128 1.08014 18.0182 1.27954 17.9602C1.47893 17.9021 1.65531 17.7834 1.78418 17.6206C2.76383 16.4555 3.96583 15.4974 5.31997 14.8021C6.6741 14.1068 8.15322 13.6884 9.6709 13.5713C9.7207 13.5649 9.8457 13.5552 10 13.5454V17C10 17.1977 10.0586 17.3911 10.1685 17.5555C10.2784 17.7199 10.4346 17.8481 10.6173 17.9238C10.8 17.9995 11.0011 18.0193 11.195 17.9807C11.389 17.9421 11.5672 17.8468 11.707 17.707L19.707 9.70697C19.7999 9.61415 19.8735 9.50393 19.9238 9.38262C19.9741 9.26131 19.9999 9.13129 19.9999 8.99998C19.9999 8.86866 19.9741 8.73864 19.9238 8.61733C19.8735 8.49602 19.7999 8.38581 19.707 8.29298ZM12 14.5859V12.5C12 12.3686 11.9742 12.2386 11.9239 12.1173C11.8737 11.9959 11.8 11.8857 11.7072 11.7928C11.6143 11.6999 11.5041 11.6263 11.3827 11.576C11.2614 11.5258 11.1313 11.4999 11 11.5C10.7451 11.5 9.7041 11.5493 9.43848 11.585C6.74307 11.8332 4.17736 12.8573 2.05176 14.5332C2.29289 12.3275 3.33918 10.2883 4.99026 8.80604C6.64135 7.3238 8.78119 6.50269 11 6.49998C11.1313 6.50001 11.2614 6.47417 11.3827 6.42392C11.5041 6.37368 11.6143 6.30002 11.7072 6.20716C11.8 6.11429 11.8737 6.00404 11.9239 5.8827C11.9742 5.76136 12 5.63131 12 5.49998V3.41404L17.5859 8.99998L12 14.5859Z" fill="#7C82A1"/>
</svg>
